<svg xmlns="http://www.w3.org/2000/svg" xmlns:xlink="http://www.w3.org/1999/xlink" fill="none" version="1.1" width="800.00048828125" height="800.302001953125" viewBox="0 0 800.00048828125 800.302001953125"><defs><linearGradient x1="0.5" y1="0" x2="0.5" y2="1" id="master_svg0_1_811"><stop offset="0%" stop-color="#6100DF" stop-opacity="1"/><stop offset="100%" stop-color="#8C00F3" stop-opacity="1"/></linearGradient><linearGradient x1="0.8578860759735107" y1="0.8597633242607117" x2="-0.23903035406462583" y2="-0.2774550827255907" id="master_svg1_1_819"><stop offset="0%" stop-color="#B200BB" stop-opacity="1"/><stop offset="100%" stop-color="#7F00D4" stop-opacity="1"/></linearGradient><linearGradient x1="2.4512760639190674" y1="1.268548846244812" x2="-2.4938022839569345" y2="0.395056098230695" id="master_svg2_1_827"><stop offset="0%" stop-color="#F61B4A" stop-opacity="1"/><stop offset="100%" stop-color="#FF1365" stop-opacity="1"/></linearGradient><linearGradient x1="1" y1="-2.9802322387695312e-8" x2="0.828499219516546" y2="1.3743264510043631" id="master_svg3_1_831"><stop offset="0%" stop-color="#1A31FD" stop-opacity="1"/><stop offset="99.99992251396179%" stop-color="#4677FD" stop-opacity="1"/></linearGradient><linearGradient x1="-0.035017237067222595" y1="1.0188000202178955" x2="1.1167137964012022" y2="-0.055563892826051786" id="master_svg4_1_803"><stop offset="0%" stop-color="#1BA7FF" stop-opacity="1"/><stop offset="100%" stop-color="#0953FF" stop-opacity="1"/></linearGradient><linearGradient x1="-0.16657708585262299" y1="-1.6673908233642578" x2="0.44433419866897683" y2="2.9181498526788814" id="master_svg5_1_799"><stop offset="0%" stop-color="#F9F26E" stop-opacity="1"/><stop offset="100%" stop-color="#FFF350" stop-opacity="1"/></linearGradient><linearGradient x1="0.010019190609455109" y1="0.009814964607357979" x2="1.181058370202419" y2="1.1812435910469938" id="master_svg6_1_823"><stop offset="0%" stop-color="#F3F314" stop-opacity="1"/><stop offset="100%" stop-color="#D8DC05" stop-opacity="1"/></linearGradient><linearGradient x1="0.9001821279525757" y1="0.0966641902923584" x2="-0.27007320155881137" y2="1.3099159941504328" id="master_svg7_1_815"><stop offset="0%" stop-color="#FFCD50" stop-opacity="1"/><stop offset="98.57142567634583%" stop-color="#FFBE22" stop-opacity="1"/></linearGradient><linearGradient x1="2.3266992568969727" y1="1.8836963176727295" x2="0.02175865580334219" y2="-1.77780992725093" id="master_svg8_1_807"><stop offset="0%" stop-color="#FAD522" stop-opacity="1"/><stop offset="100%" stop-color="#FAE11C" stop-opacity="1"/></linearGradient><linearGradient x1="1.0316925048828125" y1="3.13677716255188" x2="-2.3948093740759657" y2="0.8406521586363014" id="master_svg9_1_787"><stop offset="0%" stop-color="#FF8637" stop-opacity="1"/><stop offset="100%" stop-color="#FD6E1B" stop-opacity="1"/></linearGradient><linearGradient x1="-1.9736230373382568" y1="1.1028505563735962" x2="1.8747306845584262" y2="0.7108481294751279" id="master_svga_1_791"><stop offset="0%" stop-color="#01CB75" stop-opacity="1"/><stop offset="100%" stop-color="#02AA6B" stop-opacity="1"/></linearGradient><linearGradient x1="-1.7581160068511963" y1="-0.4311377704143524" x2="2.596531409577855" y2="0.3379709760635894" id="master_svgb_1_795"><stop offset="0%" stop-color="#97E723" stop-opacity="1"/><stop offset="100%" stop-color="#7ACD00" stop-opacity="1"/></linearGradient></defs><g><g><g><g><g><path d="M400.1642542324844,800.3015666503907C400.1642542324844,800.3015666503907,631.1672542324843,800.3015666503907,631.1672542324843,800.3015666503907C631.1672542324843,800.3015666503907,400.1642542324844,400.1495666503906,400.1642542324844,400.1495666503906C400.1642542324844,400.1495666503906,400.1642542324844,800.3015666503907,400.1642542324844,800.3015666503907Z" fill-rule="evenodd" fill="url(#master_svg0_1_811)" fill-opacity="1"/></g></g><g><g><path d="M631.3342542324843,800.3015666503907C631.3342542324843,800.3015666503907,634.5002542324844,800.3015666503907,634.5002542324844,800.3015666503907C725.4982542324844,800.3015666503907,800.0002542324844,725.7755666503906,800.0002542324844,634.7385666503906C800.0002542324844,634.7385666503906,800.0002542324844,631.0715666503907,800.0002542324844,631.0715666503907C800.0002542324844,631.0715666503907,400.1642542324844,400.1495666503906,400.1642542324844,400.1495666503906C400.1642542324844,400.1495666503906,631.3342542324843,800.3015666503907,631.3342542324843,800.3015666503907Z" fill-rule="evenodd" fill="url(#master_svg1_1_819)" fill-opacity="1"/></g></g><g><g><path d="M400.1642542324844,400.1495666503906C400.1642542324844,400.1495666503906,800.0002542324844,631.0715666503907,800.0002542324844,631.0715666503907C800.0002542324844,631.0715666503907,800.0002542324844,400.1495666503906,800.0002542324844,400.1495666503906C800.0002542324844,400.1495666503906,400.1642542324844,400.1495666503906,400.1642542324844,400.1495666503906Z" fill-rule="evenodd" fill="url(#master_svg2_1_827)" fill-opacity="1"/></g></g><g><g><path d="M169.34415207870188,800.3015666503907C169.34415207870188,800.3015666503907,400.17715207870185,800.3015666503907,400.17715207870185,800.3015666503907C400.17715207870185,800.3015666503907,400.17715207870185,400.1495666503906,400.17715207870185,400.1495666503906C400.17715207870185,400.1495666503906,169.34415207870188,800.3015666503907,169.34415207870188,800.3015666503907Z" fill-rule="evenodd" fill="url(#master_svg3_1_831)" fill-opacity="1"/></g></g><g><g><path d="M0.0008498556562699378,631.2375666503906C0.0008498556562699378,631.2375666503906,0.0008498556562699378,634.7385666503906,0.0008498556562699378,634.7385666503906C0.0008498556562699378,725.7755666503906,74.50124985565627,800.3015666503907,165.66884985565628,800.3015666503907C165.66884985565628,800.3015666503907,169.33484985565627,800.3015666503907,169.33484985565627,800.3015666503907C169.33484985565627,800.3015666503907,400.1688498556563,400.1495666503906,400.1688498556563,400.1495666503906C400.1688498556563,400.1495666503906,0.0008498556562699378,631.2375666503906,0.0008498556562699378,631.2375666503906Z" fill-rule="evenodd" fill="url(#master_svg4_1_803)" fill-opacity="1"/></g></g><g><g><path d="M169.16373543365626,0C169.16373543365626,0,400.16373543365626,400.152,400.16373543365626,400.152C400.16373543365626,400.152,400.16373543365626,0,400.16373543365626,0C400.16373543365626,0,169.16373543365626,0,169.16373543365626,0Z" fill-rule="evenodd" fill="url(#master_svg5_1_799)" fill-opacity="1"/></g></g><g><g><path d="M165.66884985565628,0C74.50124985565627,0,0.0008498556562699378,74.5302,0.0008498556562699378,165.563C0.0008498556562699378,165.563,0.0008498556562699378,169.064,0.0008498556562699378,169.064C0.0008498556562699378,169.064,400.1688498556563,400.152,400.1688498556563,400.152C400.1688498556563,400.152,169.16784985565627,0,169.16784985565627,0C169.16784985565627,0,165.66884985565628,0,165.66884985565628,0Z" fill-rule="evenodd" fill="url(#master_svg6_1_823)" fill-opacity="1"/></g></g><g><g><path d="M631.3342542324843,0C631.3342542324843,0,400.1642542324844,400.152,400.1642542324844,400.152C400.1642542324844,400.152,800.0002542324844,169.398,800.0002542324844,169.398C800.0002542324844,169.398,800.0002542324844,165.73,800.0002542324844,165.73C800.0002542324844,74.5302,725.4982542324844,0,634.5002542324844,0C634.5002542324844,0,631.3342542324843,0,631.3342542324843,0Z" fill-rule="evenodd" fill="url(#master_svg7_1_815)" fill-opacity="1"/></g></g><g><g><path d="M400.1642542324844,0C400.1642542324844,0,400.1642542324844,400.152,400.1642542324844,400.152C400.1642542324844,400.152,631.1672542324843,0,631.1672542324843,0C631.1672542324843,0,400.1642542324844,0,400.1642542324844,0Z" fill-rule="evenodd" fill="url(#master_svg8_1_807)" fill-opacity="1"/></g></g><g><g><path d="M400.1642542324844,400.144404296875C400.1642542324844,400.144404296875,800.0002542324844,400.144404296875,800.0002542324844,400.144404296875C800.0002542324844,400.144404296875,800.0002542324844,169.389404296875,800.0002542324844,169.389404296875C800.0002542324844,169.389404296875,400.1642542324844,400.144404296875,400.1642542324844,400.144404296875Z" fill-rule="evenodd" fill="url(#master_svg9_1_787)" fill-opacity="1"/></g></g><g><g><path d="M0.0008498556562699378,400.1495666503906C0.0008498556562699378,400.1495666503906,0.0008498556562699378,631.2375666503906,0.0008498556562699378,631.2375666503906C0.0008498556562699378,631.2375666503906,400.1688498556563,400.1495666503906,400.1688498556563,400.1495666503906C400.1688498556563,400.1495666503906,0.0008498556562699378,400.1495666503906,0.0008498556562699378,400.1495666503906Z" fill-rule="evenodd" fill="url(#master_svga_1_791)" fill-opacity="1"/></g></g><g><g><path d="M0.0008498556562699378,400.1466700439453C0.0008498556562699378,400.1466700439453,400.1688498556563,400.1466700439453,400.1688498556563,400.1466700439453C400.1688498556563,400.1466700439453,0.0008498556562699378,169.0586700439453,0.0008498556562699378,169.0586700439453C0.0008498556562699378,169.0586700439453,0.0008498556562699378,400.1466700439453,0.0008498556562699378,400.1466700439453Z" fill-rule="evenodd" fill="url(#master_svgb_1_795)" fill-opacity="1"/></g></g></g></g></g></svg>